<svg xmlns="http://www.w3.org/2000/svg" xmlns:xlink="http://www.w3.org/1999/xlink" id="Layer_1" x="0" y="0" version="1.1" viewBox="0 0 288 122.333" xml:space="preserve" style="enable-background:new 0 0 288 122.3333359"><style type="text/css">.st0{fill:#fff}.st1{fill:#74cbcb}.st1,.st2,.st3{clip-path:url(#SVGID_2_)}.st2{fill:#73cbcb}.st3{fill:#72cbca}.st4{fill:#71caca}.st4,.st5,.st6,.st7,.st8{clip-path:url(#SVGID_2_)}.st5{fill:#70caca}.st6{fill:#6fcac9}.st7{fill:#6ecac9}.st8{fill:#6dc9c9}.st10,.st11,.st12,.st13,.st9{clip-path:url(#SVGID_2_)}.st9{fill:#6cc9c8}.st10{fill:#6bc9c8}.st11{fill:#6ac9c8}.st12{fill:#69c8c8}.st13{fill:#68c8c7}.st14{fill:#67c8c7}.st14,.st15,.st16,.st17,.st18{clip-path:url(#SVGID_2_)}.st15{fill:#66c7c7}.st16{fill:#65c7c6}.st17{fill:#64c7c6}.st18{fill:#62c7c6}.st19{fill:#61c6c6}.st19,.st20,.st21,.st22,.st23{clip-path:url(#SVGID_2_)}.st20{fill:#60c6c5}.st21{fill:#5ec6c5}.st22{fill:#5dc5c5}.st23{fill:#5bc5c4}.st24{fill:#5ac5c4}.st24,.st25,.st26,.st27,.st28{clip-path:url(#SVGID_2_)}.st25{fill:#58c4c3}.st26{fill:#57c4c3}.st27{fill:#55c4c3}.st28{fill:#53c3c2}.st29{fill:#51c3c2}.st29,.st30,.st31,.st32,.st33{clip-path:url(#SVGID_2_)}.st30{fill:#4fc3c1}.st31{fill:#4dc2c1}.st32{fill:#4bc2c0}.st33{fill:#49c1c0}.st34{fill:#46c1c0}.st34,.st35,.st36,.st37,.st38{clip-path:url(#SVGID_2_)}.st35{fill:#44c0bf}.st36{fill:#41c0bf}.st37{fill:#3ec0be}.st38{fill:#3bbfbe}.st39{fill:#38bfbd}.st39,.st40,.st41,.st42,.st43{clip-path:url(#SVGID_2_)}.st40{fill:#34bebd}.st41{fill:#30bebc}.st42{fill:#2cbdbb}.st43{fill:#27bdbb}.st44{fill:#21bcba}.st44,.st45,.st46,.st47,.st48{clip-path:url(#SVGID_2_)}.st45{fill:#1abcba}.st46{fill:#10bbb9}.st47{fill:#00bbb9}.st48{fill:#00bab8}.st49{fill:#00bab7}.st49,.st50,.st51,.st52,.st53{clip-path:url(#SVGID_2_)}.st50{fill:#00b9b7}.st51{fill:#00b9b6}.st52{fill:#00b8b6}.st53{fill:#00b7b5}.st54{fill:#00b7b4}.st54,.st55,.st56,.st57,.st58{clip-path:url(#SVGID_2_)}.st55{fill:#00b6b4}.st56{fill:#00b6b3}.st57{fill:#00b5b2}.st58{fill:#00b4b1}.st59{fill:#00b3b0}.st59,.st60,.st61,.st62,.st63{clip-path:url(#SVGID_2_)}.st60{fill:#00b2af}.st61{fill:#00b2ae}.st62{fill:#00b1ad}.st63{fill:#00b0ad}.st64{fill:#74cbcb}.st64,.st65,.st66,.st67{clip-path:url(#SVGID_4_)}.st65{fill:#73cbcb}.st66{fill:#73cbca}.st67{fill:#72cbca}.st68{fill:#71caca}.st68,.st69,.st70,.st71,.st72{clip-path:url(#SVGID_4_)}.st69{fill:#70caca}.st70{fill:#6fcac9}.st71{fill:#6ec9c9}.st72{fill:#6dc9c9}.st73{fill:#6cc9c8}.st73,.st74,.st75,.st76,.st77{clip-path:url(#SVGID_4_)}.st74{fill:#6bc9c8}.st75{fill:#6ac8c8}.st76{fill:#69c8c8}.st77{fill:#68c8c7}.st78{fill:#67c8c7}.st78,.st79,.st80,.st81,.st82{clip-path:url(#SVGID_4_)}.st79{fill:#66c7c7}.st80{fill:#65c7c6}.st81{fill:#63c7c6}.st82{fill:#62c7c6}.st83{fill:#61c6c6}.st83,.st84,.st85,.st86,.st87{clip-path:url(#SVGID_4_)}.st84{fill:#60c6c5}.st85{fill:#5fc6c5}.st86{fill:#5dc5c5}.st87{fill:#5cc5c4}.st88{fill:#5bc5c4}.st88,.st89,.st90,.st91,.st92{clip-path:url(#SVGID_4_)}.st89{fill:#59c5c4}.st90{fill:#58c4c3}.st91{fill:#57c4c3}.st92{fill:#55c4c3}.st93{fill:#54c3c2}.st93,.st94,.st95,.st96,.st97{clip-path:url(#SVGID_4_)}.st94{fill:#52c3c2}.st95{fill:#50c3c2}.st96{fill:#4fc2c1}.st97{fill:#4dc2c1}.st100,.st101,.st98,.st99{clip-path:url(#SVGID_4_)}.st98{fill:#4bc2c1}.st99{fill:#4ac1c0}.st100{fill:#48c1c0}.st101{fill:#46c1c0}.st102{fill:#44c1bf}.st102,.st103,.st104,.st105{clip-path:url(#SVGID_4_)}.st103{fill:#42c0bf}.st104{fill:#40c0be}.st105{fill:#3ec0be}.st106{fill:#3cbfbe}.st106,.st107,.st108,.st109{clip-path:url(#SVGID_4_)}.st107{fill:#39bfbd}.st108{fill:#37bfbd}.st109{fill:#34bebd}.st110{fill:#32bebc}.st110,.st111,.st112,.st113{clip-path:url(#SVGID_4_)}.st111{fill:#2fbdbc}.st112{fill:#2cbdbb}.st113{fill:#28bdbb}.st114{fill:#25bcbb}.st114,.st115,.st116,.st117{clip-path:url(#SVGID_4_)}.st115{fill:#21bcba}.st116{fill:#1cbcba}.st117{fill:#16bbba}.st118{fill:#0fbbb9}.st118,.st119,.st120,.st121{clip-path:url(#SVGID_4_)}.st119{fill:#04bbb9}.st120{fill:#00bab8}.st121{fill:#00b9b7}.st122{fill:#00b9b6}.st122,.st123,.st124,.st125{clip-path:url(#SVGID_4_)}.st123{fill:#00b8b6}.st124{fill:#00b8b5}.st125{fill:#00b7b5}.st126{fill:#00b7b4}.st126,.st127,.st128,.st129{clip-path:url(#SVGID_4_)}.st127{fill:#00b6b4}.st128{fill:#00b6b3}.st129{fill:#00b5b2}</style><g><path d="M33.85812,102.6989899c2.0253677,2.7248077,4.6634712,4.9082489,7.9122009,6.5503235 c3.2492561,1.6410217,6.8648872,2.4625854,10.8474236,2.4625854c3.4929771,0,6.4620361-0.5075302,8.9082298-1.5194244 c2.445137-1.0139999,4.4181633-2.3938522,5.9211998-4.1395493c1.501976-1.7478104,2.5841827-3.7906265,3.2492599-6.1316147 c0.6629562-2.3409882,0.9954987-4.8384628,0.9954987-7.4924316v-8.8035507h-0.2093582 c-2.2368393,3.3528824-4.9621735,5.7298203-8.1749535,7.1265869c-3.2143631,1.3978271-6.6026649,2.0956802-10.1659546,2.0956802 c-3.5632935,0-6.9003143-0.6291275-10.0084114-1.886322c-3.110218-1.258255-5.8170509-2.9870377-8.1226158-5.1873932 c-2.3055687-2.201416-4.1231632-4.83741-5.4496174-7.9132614c-1.3280411-3.0737381-1.9915314-6.3927765-1.9915314-9.9560699 s0.6291275-6.881279,1.8868523-9.9566002c1.2571983-3.0737381,2.9865055-5.764183,5.1873913-8.0697479 c2.2008896-2.3055649,4.8210182-4.1036034,7.8603935-5.3972778c3.0393715-1.2920914,6.3753319-1.9391937,10.0089378-1.9391937 c1.467083,0,3.0213966,0.1411591,4.6634712,0.4192429c1.6410179,0.280201,3.2836227,0.7697563,4.9256973,1.4676132 c1.6410179,0.6989098,3.2656479,1.6600494,4.8733597,2.8818245c1.6066513,1.223362,3.1081009,2.7771492,4.5069809,4.6640015 h0.2093582v-8.1749535h6.9172287v48.6294212c0,2.6539688-0.3325424,5.4834595-0.9960327,8.4884644 c-0.6645432,3.0028915-1.9566345,5.7647095-3.877327,8.2791061c-1.9227982,2.5154495-4.5952682,4.6121902-8.0174026,6.2891541 C62.2941437,117.1615143,57.8220558,118,52.3031807,118c-4.8913345,0-9.2587433-0.8035889-13.1001244-2.4097137 c-3.8434906-1.6082458-7.3364677-4.0877457-10.4805183-7.4416809L33.85812,102.6989899z M35.1153183,67.6951904 c0,2.5852356,0.4715805,5.0139847,1.4152718,7.2830734c0.943161,2.2712021,2.2352524,4.2632675,3.877327,5.9740677 c1.6410179,1.7129211,3.5632935,3.0758514,5.7641792,4.087738c2.2008896,1.0129547,4.593689,1.5194244,7.1794548,1.5194244 c2.5149231,0,4.9077187-0.4536057,7.1789246-1.3629303c2.2696152-0.9072113,4.2791252-2.1823883,6.0258751-3.8244629 c1.745697-1.6410141,3.091713-3.6161575,4.0354004-5.9222565c0.943161-2.3050385,1.3787918-4.8892136,1.3100662-7.7546539 c0-2.5847092-0.4192429-5.012928-1.2577286-7.2841301c-0.8384781-2.2696152-2.0618439-4.2611465-3.6684952-5.9740677 c-1.6077118-1.7113304-3.5632935-3.0737343-5.8688583-4.0872116c-2.3055687-1.0118904-4.8913345-1.5194206-7.7551842-1.5194206 c-2.5857658,0-4.9785652,0.5075302-7.1794548,1.5194206c-2.2008858,1.0134773-4.1231613,2.3758812-5.7641792,4.0872116 c-1.6420746,1.7129211-2.934166,3.7044525-3.877327,5.9740677C35.5868988,62.6822624,35.1153183,65.1104813,35.1153183,67.6951904z" class="st0"/><path d="M106.8004074,92.8475952h-7.5458221V18.6465225h22.8468323 c7.5458298,0,13.501915,1.6426048,17.8693314,4.9256973c4.3658295,3.2852077,6.5503235,8.2452679,6.5503235,14.8822975 c0,5.1715317-1.6246185,9.5209694-4.8733521,13.0483131c-3.2492676,3.5289268-7.9486847,5.5722694-14.0961533,6.1305542 l21.3802872,35.2142105h-9.2233276l-20.3319168-34.4804039h-12.5762024V92.8475952z M106.8004074,51.4499626h13.4146881 c3.3539352,0,6.1998138-0.3484001,8.5413284-1.0478401c2.3404541-0.6973267,4.2088013-1.62463,5.6071625-2.7771492 c1.3967743-1.1530495,2.4107666-2.5154533,3.0393677-4.0872116c0.6286011-1.5722923,0.943161-3.2656479,0.943161-5.0832443 c0-1.745697-0.3145599-3.4062767-0.943161-4.978035c-0.6286011-1.5722904-1.6425934-2.9510841-3.0393677-4.1400814 c-1.3983612-1.1868839-3.2667084-2.1120701-5.6071625-2.7771473c-2.3415146-0.6629639-5.1873932-0.9955025-8.5413284-0.9955025 h-13.4146881V51.4499626z" class="st0"/><path d="M161.925705,18.6465225h21.5901642c7.5453033,0,13.5013885,1.6426048,17.8682861,4.9256973 c4.3658142,3.2852077,6.5503235,8.2452679,6.5503235,14.8822975c0,6.6386147-2.1845093,11.6166496-6.5503235,14.9346352 c-4.3668976,3.319046-10.3229828,4.9780388-17.8682861,4.9780388h-14.043808v34.4804039h-7.5463562V18.6465225z M169.4720612,51.4499626h12.157486c3.35289,0,6.1992798-0.3484001,8.5413361-1.0478401 c2.33992-0.6973267,4.2082825-1.62463,5.6071625-2.7771492c1.396759-1.1530495,2.4097137-2.5154533,3.0388336-4.0872116 c0.6291351-1.5722923,0.9431763-3.2656479,0.9431763-5.0832443c0-1.745697-0.3140411-3.4062767-0.9431763-4.978035 c-0.6291199-1.5722904-1.6420746-2.9510841-3.0388336-4.1400814c-1.39888-1.1868839-3.2672424-2.1120701-5.6071625-2.7771473 c-2.3420563-0.6629639-5.188446-0.9955025-8.5413361-0.9955025h-12.157486V51.4499626z" class="st0"/><path d="M283.705719,81.1098785c-1.2572021,1.886322-2.812561,3.6679688-4.6629333,5.3449402 c-1.8525085,1.6769638-3.966156,3.1276627-6.3409729,4.3489075c-2.375885,1.2233582-4.9442139,2.1834412-7.7028503,2.8823547 c-2.7607422,0.6978531-5.678009,1.0478363-8.7517395,1.0478363c-5.5194092,0-10.6370087-0.9791107-15.352829-2.9341583 c-4.7168579-1.9550552-8.8035431-4.6640015-12.2621613-8.1226196c-3.4586182-3.4586105-6.1675568-7.5622177-8.1226196-12.3139801 c-1.9571686-4.7507019-2.9341583-9.9565964-2.9341583-15.6161003s0.9769897-10.8632851,2.9341583-15.6155739 c1.9550629-4.7507057,4.6640015-8.8558922,8.1226196-12.3145065s7.5453033-6.1654472,12.2621613-8.1220856 c4.7158203-1.9555817,9.8334198-2.9346943,15.352829-2.9346943c4.6121826,0,9.2233276,0.9087982,13.8344421,2.7248096 c4.611145,1.8175945,8.5582581,4.8210182,11.8424072,9.0134373l-6.6021423,4.9256954 c-0.7697449-1.1874084-1.8175964-2.3748226-3.1445618-3.5632915c-1.3280334-1.1874104-2.8474731-2.2352524-4.5582886-3.1440506 c-1.7128906-0.9072113-3.5474243-1.6410179-5.5024719-2.2008877c-1.9571533-0.5588131-3.913269-0.8384838-5.8693848-0.8384838 c-4.7517548,0-9.0129089,0.8744335-12.785553,2.6201305c-3.7726593,1.747282-6.9690399,4.0872116-9.5891724,7.0213776 c-2.6201324,2.9346924-4.6301727,6.3409691-6.0269318,10.2188263c-1.3978271,3.877327-2.0956879,7.9486771-2.0956879,12.2092972 c0,4.2627335,0.6978607,8.331974,2.0956879,12.209301c1.396759,3.8783875,3.4067993,7.2841339,6.0269318,10.2182922 c2.6201324,2.9352264,5.8165131,5.2762146,9.5891724,7.0219116c3.772644,1.7478104,8.0337982,2.6201248,12.785553,2.6201248 c1.9561157,0,3.8942566-0.1734009,5.8165283-0.5233917c1.9212036-0.3489227,3.8075256-0.943161,5.6600342-1.7816391 c1.8503723-0.8384857,3.5971069-1.9740906,5.2402344-3.4068069c1.6410217-1.430603,3.1604614-3.2302246,4.5582886-5.3967514 L283.705719,81.1098785z" class="st0"/><g><g><defs><rect id="SVGID_1_" width="27.535" height="27.535" x="8.46" y="9.703" transform="matrix(-0.7097267 -0.7044771 0.7044771 -0.7097267 21.4684124 55.7859459)"/></defs><clipPath id="SVGID_2_"><use xlink:href="#SVGID_1_" style="overflow:visible"/></clipPath><polygon points="3.102 4 2.757 7.049 2.757 4" class="st1"/><polygon points="3.557 4 2.757 11.078 2.757 7.049 3.102 4" class="st2"/><polygon points="4.012 4 2.757 15.107 2.757 11.078 3.557 4" class="st2"/><polygon points="4.467 4 2.757 19.135 2.757 15.107 4.012 4" class="st3"/><polygon points="4.923 4 2.757 23.164 2.757 19.135 4.467 4" class="st3"/><polygon points="5.378 4 2.757 27.193 2.757 23.164 4.923 4" class="st4"/><polygon points="5.833 4 2.757 31.222 2.757 27.193 5.378 4" class="st5"/><polygon points="6.288 4 2.757 35.25 2.757 31.222 5.833 4" class="st5"/><polygon points="6.743 4 2.757 39.279 2.757 35.25 6.288 4" class="st6"/><polygon points="7.199 4 2.801 42.916 2.757 42.911 2.757 39.279 6.743 4" class="st7"/><polygon points="7.654 4 3.254 42.94 3.013 42.94 2.801 42.916 7.199 4" class="st8"/><polygon points="8.109 4 3.709 42.94 3.254 42.94 7.654 4" class="st8"/><polygon points="8.564 4 4.164 42.94 3.709 42.94 8.109 4" class="st9"/><polygon points="9.019 4 4.62 42.94 4.164 42.94 8.564 4" class="st10"/><polygon points="9.475 4 5.075 42.94 4.62 42.94 9.019 4" class="st11"/><polygon points="9.93 4 5.53 42.94 5.075 42.94 9.475 4" class="st12"/><polygon points="10.385 4 5.985 42.94 5.53 42.94 9.93 4" class="st13"/><polygon points="10.84 4 6.44 42.94 5.985 42.94 10.385 4" class="st14"/><polygon points="11.295 4 6.896 42.94 6.44 42.94 10.84 4" class="st15"/><polygon points="11.751 4 7.351 42.94 6.896 42.94 11.295 4" class="st16"/><polygon points="12.206 4 7.806 42.94 7.351 42.94 11.751 4" class="st17"/><polygon points="12.661 4 8.261 42.94 7.806 42.94 12.206 4" class="st18"/><polygon points="13.116 4 8.716 42.94 8.261 42.94 12.661 4" class="st19"/><polygon points="13.571 4 9.172 42.94 8.716 42.94 13.116 4" class="st20"/><polygon points="14.027 4 9.627 42.94 9.172 42.94 13.571 4" class="st21"/><polygon points="14.482 4 10.082 42.94 9.627 42.94 14.027 4" class="st22"/><polygon points="14.937 4 10.537 42.94 10.082 42.94 14.482 4" class="st23"/><polygon points="15.392 4 10.992 42.94 10.537 42.94 14.937 4" class="st24"/><polygon points="15.847 4 11.448 42.94 10.992 42.94 15.392 4" class="st25"/><polygon points="16.303 4 11.903 42.94 11.448 42.94 15.847 4" class="st26"/><polygon points="16.758 4 12.358 42.94 11.903 42.94 16.303 4" class="st27"/><polygon points="17.213 4 12.813 42.94 12.358 42.94 16.758 4" class="st28"/><polygon points="17.668 4 13.268 42.94 12.813 42.94 17.213 4" class="st29"/><polygon points="18.124 4 13.724 42.94 13.268 42.94 17.668 4" class="st30"/><polygon points="18.579 4 14.179 42.94 13.724 42.94 18.124 4" class="st31"/><polygon points="19.034 4 14.634 42.94 14.179 42.94 18.579 4" class="st32"/><polygon points="19.489 4 15.089 42.94 14.634 42.94 19.034 4" class="st33"/><polygon points="19.944 4 15.544 42.94 15.089 42.94 19.489 4" class="st34"/><polygon points="20.4 4 16 42.94 15.544 42.94 19.944 4" class="st35"/><polygon points="20.855 4 16.455 42.94 16 42.94 20.4 4" class="st36"/><polygon points="21.31 4 16.91 42.94 16.455 42.94 20.855 4" class="st37"/><polygon points="21.765 4 17.365 42.94 16.91 42.94 21.31 4" class="st38"/><polygon points="22.22 4 17.821 42.94 17.365 42.94 21.765 4" class="st39"/><polygon points="22.676 4 18.276 42.94 17.821 42.94 22.22 4" class="st40"/><polygon points="23.131 4 18.731 42.94 18.276 42.94 22.676 4" class="st41"/><polygon points="23.586 4 19.186 42.94 18.731 42.94 23.131 4" class="st42"/><polygon points="24.041 4 19.641 42.94 19.186 42.94 23.586 4" class="st43"/><polygon points="24.496 4 20.097 42.94 19.641 42.94 24.041 4" class="st44"/><polygon points="24.952 4 20.552 42.94 20.097 42.94 24.496 4" class="st45"/><polygon points="25.407 4 21.007 42.94 20.552 42.94 24.952 4" class="st46"/><polygon points="25.862 4 21.462 42.94 21.007 42.94 25.407 4" class="st47"/><polygon points="26.317 4 21.917 42.94 21.462 42.94 25.862 4" class="st48"/><polygon points="26.772 4 22.373 42.94 21.917 42.94 26.317 4" class="st49"/><polygon points="27.228 4 22.828 42.94 22.373 42.94 26.772 4" class="st50"/><polygon points="27.683 4 23.283 42.94 22.828 42.94 27.228 4" class="st51"/><polygon points="28.138 4 23.738 42.94 23.283 42.94 27.683 4" class="st52"/><polygon points="28.593 4 24.193 42.94 23.738 42.94 28.138 4" class="st53"/><polygon points="29.048 4 24.649 42.94 24.193 42.94 28.593 4" class="st54"/><polygon points="29.504 4 25.104 42.94 24.649 42.94 29.048 4" class="st55"/><polygon points="29.959 4 25.559 42.94 25.104 42.94 29.504 4" class="st56"/><polygon points="30.414 4 26.014 42.94 25.559 42.94 29.959 4" class="st57"/><polygon points="30.869 4 26.469 42.94 26.014 42.94 30.414 4" class="st57"/><polygon points="31.324 4 26.925 42.94 26.469 42.94 30.869 4" class="st58"/><polygon points="31.78 4 27.38 42.94 26.925 42.94 31.324 4" class="st59"/><polygon points="32.235 4 27.835 42.94 27.38 42.94 31.78 4" class="st59"/><polygon points="32.69 4 28.29 42.94 27.835 42.94 32.235 4" class="st60"/><polygon points="33.145 4 28.745 42.94 28.29 42.94 32.69 4" class="st61"/><polygon points="33.601 4 29.201 42.94 28.745 42.94 33.145 4" class="st62"/><polygon points="34.056 4 29.656 42.94 29.201 42.94 33.601 4" class="st63"/><polygon points="41.442 4 41.697 4.029 41.697 42.94 29.656 42.94 34.056 4" class="st63"/></g></g><g><g><defs><rect id="SVGID_3_" width="16.151" height="16.151" x="67.358" y="15.164" transform="matrix(-0.7097267 -0.7044771 0.7044771 -0.7097267 112.5981827 92.8748322)"/></defs><clipPath id="SVGID_4_"><use xlink:href="#SVGID_3_" style="overflow:visible"/></clipPath><polygon points="86.854 18.491 86.543 11.82 86.854 11.82" class="st64"/><polygon points="86.854 25.501 86.216 11.82 86.543 11.82 86.854 18.491" class="st65"/><polygon points="86.854 32.511 85.89 11.82 86.216 11.82 86.854 25.501" class="st66"/><polygon points="86.627 34.66 85.563 11.82 85.89 11.82 86.854 32.511 86.854 34.66" class="st67"/><polygon points="86.301 34.66 85.237 11.82 85.563 11.82 86.627 34.66" class="st68"/><polygon points="85.974 34.66 84.91 11.82 85.237 11.82 86.301 34.66" class="st69"/><polygon points="85.648 34.66 84.584 11.82 84.91 11.82 85.974 34.66" class="st70"/><polygon points="85.321 34.66 84.257 11.82 84.584 11.82 85.648 34.66" class="st70"/><polygon points="84.995 34.66 83.931 11.82 84.257 11.82 85.321 34.66" class="st71"/><polygon points="84.668 34.66 83.604 11.82 83.931 11.82 84.995 34.66" class="st72"/><polygon points="84.342 34.66 83.278 11.82 83.604 11.82 84.668 34.66" class="st73"/><polygon points="84.015 34.66 82.951 11.82 83.278 11.82 84.342 34.66" class="st74"/><polygon points="83.689 34.66 82.625 11.82 82.951 11.82 84.015 34.66" class="st75"/><polygon points="83.362 34.66 82.298 11.82 82.625 11.82 83.689 34.66" class="st76"/><polygon points="83.036 34.66 81.972 11.82 82.298 11.82 83.362 34.66" class="st77"/><polygon points="82.709 34.66 81.645 11.82 81.972 11.82 83.036 34.66" class="st78"/><polygon points="82.383 34.66 81.319 11.82 81.645 11.82 82.709 34.66" class="st79"/><polygon points="82.056 34.66 80.992 11.82 81.319 11.82 82.383 34.66" class="st80"/><polygon points="81.73 34.66 80.666 11.82 80.992 11.82 82.056 34.66" class="st81"/><polygon points="81.403 34.66 80.339 11.82 80.666 11.82 81.73 34.66" class="st82"/><polygon points="81.077 34.66 80.013 11.82 80.339 11.82 81.403 34.66" class="st83"/><polygon points="80.75 34.66 79.686 11.82 80.013 11.82 81.077 34.66" class="st84"/><polygon points="80.424 34.66 79.36 11.82 79.686 11.82 80.75 34.66" class="st85"/><polygon points="80.097 34.66 79.033 11.82 79.36 11.82 80.424 34.66" class="st86"/><polygon points="79.771 34.66 78.707 11.82 79.033 11.82 80.097 34.66" class="st87"/><polygon points="79.444 34.66 78.38 11.82 78.707 11.82 79.771 34.66" class="st88"/><polygon points="79.118 34.66 78.054 11.82 78.38 11.82 79.444 34.66" class="st89"/><polygon points="78.791 34.66 77.727 11.82 78.054 11.82 79.118 34.66" class="st90"/><polygon points="78.465 34.66 77.401 11.82 77.727 11.82 78.791 34.66" class="st91"/><polygon points="78.138 34.66 77.074 11.82 77.401 11.82 78.465 34.66" class="st92"/><polygon points="77.812 34.66 76.748 11.82 77.074 11.82 78.138 34.66" class="st93"/><polygon points="77.485 34.66 76.421 11.82 76.748 11.82 77.812 34.66" class="st94"/><polygon points="77.159 34.66 76.095 11.82 76.421 11.82 77.485 34.66" class="st95"/><polygon points="76.832 34.66 75.768 11.82 76.095 11.82 77.159 34.66" class="st96"/><polygon points="76.506 34.66 75.442 11.82 75.768 11.82 76.832 34.66" class="st97"/><polygon points="76.179 34.66 75.115 11.82 75.442 11.82 76.506 34.66" class="st98"/><polygon points="75.853 34.66 74.789 11.82 75.115 11.82 76.179 34.66" class="st99"/><polygon points="75.526 34.66 74.462 11.82 74.789 11.82 75.853 34.66" class="st100"/><polygon points="75.2 34.66 74.136 11.82 74.462 11.82 75.526 34.66" class="st101"/><polygon points="74.873 34.66 73.809 11.82 74.136 11.82 75.2 34.66" class="st102"/><polygon points="74.547 34.66 73.483 11.82 73.809 11.82 74.873 34.66" class="st103"/><polygon points="74.22 34.66 73.156 11.82 73.483 11.82 74.547 34.66" class="st104"/><polygon points="73.894 34.66 72.83 11.82 73.156 11.82 74.22 34.66" class="st105"/><polygon points="73.567 34.66 72.503 11.82 72.83 11.82 73.894 34.66" class="st106"/><polygon points="73.241 34.66 72.177 11.82 72.503 11.82 73.567 34.66" class="st107"/><polygon points="72.914 34.66 71.85 11.82 72.177 11.82 73.241 34.66" class="st108"/><polygon points="72.588 34.66 71.524 11.82 71.85 11.82 72.914 34.66" class="st109"/><polygon points="72.261 34.66 71.197 11.82 71.524 11.82 72.588 34.66" class="st110"/><polygon points="71.935 34.66 70.871 11.82 71.197 11.82 72.261 34.66" class="st111"/><polygon points="71.608 34.66 70.544 11.82 70.871 11.82 71.935 34.66" class="st112"/><polygon points="71.282 34.66 70.218 11.82 70.544 11.82 71.608 34.66" class="st113"/><polygon points="70.955 34.66 69.891 11.82 70.218 11.82 71.282 34.66" class="st114"/><polygon points="70.629 34.66 69.565 11.82 69.891 11.82 70.955 34.66" class="st115"/><polygon points="70.302 34.66 69.238 11.82 69.565 11.82 70.629 34.66" class="st116"/><polygon points="69.976 34.66 68.912 11.82 69.238 11.82 70.302 34.66" class="st117"/><polygon points="69.649 34.66 68.585 11.82 68.912 11.82 69.976 34.66" class="st118"/><polygon points="69.323 34.66 68.259 11.82 68.585 11.82 69.649 34.66" class="st119"/><polygon points="68.996 34.66 67.932 11.82 68.259 11.82 69.323 34.66" class="st120"/><polygon points="68.67 34.66 67.606 11.82 67.932 11.82 68.996 34.66" class="st120"/><polygon points="68.343 34.66 67.279 11.82 67.606 11.82 68.67 34.66" class="st120"/><polygon points="68.017 34.66 66.953 11.82 67.279 11.82 68.343 34.66" class="st121"/><polygon points="67.69 34.66 66.626 11.82 66.953 11.82 68.017 34.66" class="st121"/><polygon points="67.364 34.66 66.3 11.82 66.626 11.82 67.69 34.66" class="st122"/><polygon points="67.037 34.66 65.973 11.82 66.3 11.82 67.364 34.66" class="st123"/><polygon points="66.711 34.66 65.647 11.82 65.973 11.82 67.037 34.66" class="st123"/><polygon points="66.384 34.66 65.32 11.82 65.647 11.82 66.711 34.66" class="st124"/><polygon points="66.058 34.66 64.994 11.82 65.32 11.82 66.384 34.66" class="st125"/><polygon points="65.731 34.66 64.667 11.82 64.994 11.82 66.058 34.66" class="st126"/><polygon points="65.405 34.66 64.341 11.82 64.667 11.82 65.731 34.66" class="st126"/><polygon points="65.078 34.66 64.014 11.82 64.341 11.82 65.405 34.66" class="st127"/><polygon points="64.752 34.66 64.013 18.802 64.013 11.82 64.014 11.82 65.078 34.66" class="st128"/><polygon points="64.425 34.66 64.013 25.812 64.013 18.802 64.752 34.66" class="st128"/><polygon points="64.099 34.66 64.013 32.822 64.013 25.812 64.425 34.66" class="st129"/><polygon points="64.013 32.822 64.099 34.66 64.013 34.66" class="st129"/></g></g><g><polygon points="23.01 11.698 11.264 23.532 23.098 35.279 33.11 35.242 22.611 24.827 74.453 24.635 69.91 29.21 74.915 29.191 80.789 23.274 74.872 17.401 69.866 17.42 74.444 21.961 22.602 22.153 33.022 11.661" class="st0"/></g></g></svg>