<svg xmlns="http://www.w3.org/2000/svg" id="Layer_1" data-name="Layer 1" viewBox="0 0 479.367 418"><defs><style>.cls-1{fill:#54bec6}.cls-1,.cls-3{stroke:#3d5e5f}.cls-1,.cls-2,.cls-3,.cls-4{stroke-miterlimit:10;stroke-width:3px}.cls-2,.cls-3,.cls-4{fill:none}.cls-2{stroke:#476667}.cls-4{stroke:#54bec6}</style></defs><title>grpc-newicon-3</title><path d="M297.59276,45.39022l-8.05211-6.514a202.72542,202.72542,0,0,0-28.477,28.16754c-51.14681,60.66837-129.99823,154.19866-129.99823,154.19866l108.69742,91.638s78.85143-93.53028,129.99823-154.19865a134.54439,134.54439,0,0,0,21.11714-34.64655Zm15.725,135.61929a42.32326,42.32326,0,1,1-5.07847-59.63813A42.32321,42.32321,0,0,1,313.31773,181.00951Z" class="cls-1"/><polygon points="78.155 216.037 131.066 221.242 204.056 134.664 137.708 145.397 78.155 216.037" class="cls-2"/><polygon points="253.84 364.149 239.763 312.88 312.754 226.302 313.393 293.51 253.84 364.149" class="cls-2"/><polygon points="211.92 328.808 120.075 251.378 148.339 235.805 222.489 298.318 211.92 328.808" class="cls-2"/><path d="M266.50562,141.54436a18.90483,18.90483,0,0,1,26.63906-2.26841" class="cls-3"/><line x1="152.835" x2="65.572" y1="303.266" y2="406.773" class="cls-4"/><line x1="134.395" x2="101.589" y1="286.226" y2="295.78" class="cls-4"/><line x1="172.974" x2="160.004" y1="319.974" y2="385.257" class="cls-4"/><line x1="91.28" x2="73.693" y1="297.889" y2="303.692" class="cls-4"/><path d="M289.54065,38.87618l101.3376,85.15905c23.08156-53.07462,3.591-112.01295,3.591-112.01295S336.60319,1.97483,289.54065,38.87618Z" class="cls-3"/><line x1="160.592" x2="245.964" y1="186.219" y2="256.075" class="cls-3"/></svg>