<svg xmlns="http://www.w3.org/2000/svg" id="Layer_1" data-name="Layer 1" viewBox="0 0 479.367 418"><defs><style>.cls-1,.cls-3{fill:none}.cls-1,.cls-2{stroke:#3d5e5f}.cls-1,.cls-2,.cls-3{stroke-miterlimit:10;stroke-width:3px}.cls-2{fill:#54bec6}.cls-3{stroke:#476667}</style></defs><title>grpc-newicon-1</title><line x1="204.021" x2="275.321" y1="342.165" y2="342.165" class="cls-1"/><polyline points="262.134 342.165 456.314 342.165 456.314 10.879 23.027 10.879 23.027 342.165 239.671 342.165 239.671 404.983 153.324 404.983" class="cls-1"/><line x1="257.024" x2="342.591" y1="404.983" y2="404.983" class="cls-1"/><line x1="222.318" x2="257.024" y1="312.786" y2="312.786" class="cls-1"/><path d="M23.02712,10.87863V279.08655H456.31441V10.87863Zm284.98751,132.6703a68.297,68.297,0,0,1-3.192,20.67685l10.29719,8.78739a80.891,80.891,0,0,1-12.22206,21.13924l-12.75852-4.52384a68.26041,68.26041,0,0,1-35.79694,20.66864l-2.466,13.33516a81.71266,81.71266,0,0,1-24.41145,0l-2.46587-13.33516A68.26355,68.26355,0,0,1,189.202,189.62857l-12.75817,4.52384a80.87966,80.87966,0,0,1-12.22206-21.13924l10.297-8.78739a68.56177,68.56177,0,0,1,0-41.35387l-10.297-8.78757a80.87329,80.87329,0,0,1,12.22188-21.13906l12.75835,4.524a68.26355,68.26355,0,0,1,35.79694-20.66864l2.46587-13.33533a81.70472,81.70472,0,0,1,24.41145-.00018l2.46621,13.33551a68.25989,68.25989,0,0,1,35.79677,20.66864l12.75852-4.524a80.8929,80.8929,0,0,1,12.22206,21.13906l-10.29719,8.78774A68.29615,68.29615,0,0,1,308.01463,143.54893Z" class="cls-2"/><path d="M261.58234,143.54885a21.91158,21.91158,0,1,1-21.91157-21.91157" class="cls-3"/></svg>