<svg xmlns="http://www.w3.org/2000/svg" id="Layer_1" data-name="Layer 1" viewBox="0 0 479.367 418"><defs><style>.cls-1,.cls-2{fill:none;stroke-miterlimit:10;stroke-width:3px}.cls-1{stroke:#54bec6}.cls-2{stroke:#476667}.cls-3{fill:#476667}.cls-4{fill:#54bec6}</style></defs><title>grpc-newicon-4</title><line x1="120.275" x2="169.564" y1="208.344" y2="208.344" class="cls-1"/><line x1="169.022" x2="43.488" y1="131.429" y2="131.429" class="cls-2"/><polygon points="47.823 131.429 77.654 101.281 62.791 101.281 32.961 131.429 47.823 131.429" class="cls-3"/><polygon points="77.654 161.576 47.823 131.429 32.961 131.429 62.791 161.576 77.654 161.576" class="cls-3"/><line x1="290.648" x2="416.181" y1="131.429" y2="131.429" class="cls-2"/><polygon points="411.846 131.429 382.016 161.576 396.878 161.576 426.709 131.429 411.846 131.429" class="cls-3"/><polygon points="382.016 101.281 411.846 131.429 426.709 131.429 396.878 101.281 382.016 101.281" class="cls-3"/><line x1="169.022" x2="43.488" y1="285.857" y2="285.857" class="cls-2"/><polygon points="47.823 285.857 77.654 255.71 62.791 255.71 32.961 285.857 47.823 285.857" class="cls-3"/><polygon points="77.654 316.004 47.823 285.857 32.961 285.857 62.791 316.004 77.654 316.004" class="cls-3"/><line x1="290.648" x2="416.181" y1="285.857" y2="285.857" class="cls-2"/><polygon points="411.846 285.857 382.016 316.004 396.878 316.004 426.709 285.857 411.846 285.857" class="cls-3"/><polygon points="382.016 255.71 411.846 285.857 426.709 285.857 396.878 255.71 382.016 255.71" class="cls-3"/><line x1="385.418" x2="417.457" y1="208.344" y2="208.344" class="cls-1"/><line x1="61.634" x2="93.673" y1="208.344" y2="208.344" class="cls-1"/><line x1="438.387" x2="449.768" y1="208.344" y2="208.344" class="cls-1"/><line x1="29.918" x2="41.299" y1="208.344" y2="208.344" class="cls-1"/><rect width="125.308" height="325.157" x="135.783" y="48.457" class="cls-4"/><polygon points="261.091 48.457 135.783 48.457 135.783 373.615 261.091 373.615 324.633 313.026 324.633 109.046 261.091 48.457" class="cls-2"/><line x1="261.091" x2="261.091" y1="48.457" y2="373.615" class="cls-2"/><line x1="290.648" x2="365.493" y1="208.344" y2="208.344" class="cls-1"/></svg>